<svg id="Laag_1" data-name="Laag 1" xmlns="http://www.w3.org/2000/svg" width="1060" height="276" viewBox="0 0 1060 276"><defs><style>.cls-1{fill:#fff;}</style></defs><path class="cls-1" d="M259.5,276H81.39a14.5,14.5,0,0,1-14.5-14.5v-91a14.5019,14.5019,0,0,1,4.1421-10.1475l92.5425-94.4658L137.3193,36.1875,29,154.6689V261.5a14.5,14.5,0,0,1-29,0V149.04a14.5015,14.5015,0,0,1,3.7983-9.7841l123-134.54A14.5,14.5,0,0,1,137.5,0c.04,0,.0806,0,.1211.0005A14.5,14.5,0,0,1,148.3633,4.896l45.6308,51.6147q.2645.2843.5113.5791l75.8579,85.8067A14.4981,14.4981,0,0,1,274,152.5v109A14.5,14.5,0,0,1,259.5,276ZM95.89,247H245V157.99L182.832,87.6694,95.89,176.4189Z"/><path class="cls-1" d="M336.05,182.05l-.25-37.5a7.5012,7.5012,0,0,1,7.5-7.55h37.2c.125,0,12.5-1.0283,12.5-17.5,0-12.1431-9.6587-17.2041-12.7119-18.5H335V86h46.65a7.4933,7.4933,0,0,1,2.2749.3535C392.252,89.0039,408,99.3428,408,119.5c0,24.5557-18.5273,32.5-27.5,32.5H350.85l.2,29.95Z"/><rect class="cls-1" x="795" y="86" width="15" height="96"/><rect class="cls-1" x="871.5" y="86" width="78.3896" height="15"/><rect class="cls-1" x="903" y="107" width="15" height="75"/><path class="cls-1" d="M732.29,182H697c-.6377,0-15.7471-.1348-26.7646-11.8418-8.15-8.66-11.8008-20.9785-10.8516-36.6128,1.4775-24.3286,13.7529-36.0244,23.791-41.5527A48.4273,48.4273,0,0,1,704.87,86h29.8v15h-29.8a34.5457,34.5457,0,0,0-14.9326,4.3984c-9.499,5.4512-14.7412,15.2271-15.5811,29.0562-.6835,11.2563,1.5655,19.7671,6.6856,25.2983,6.4892,7.0108,15.9228,7.2461,16.0176,7.2471h35.23Z"/><path class="cls-1" d="M560.19,182h-15V142.5a7.5,7.5,0,0,1,7.5-7.5h39.85c4.5616,0,15.5-5.3232,15.5-18.5,0-9.4214-7.2089-14.0537-10.0156-15.5H545.15V86h54.5a7.4971,7.4971,0,0,1,2.6494.4834c.8467.32,20.74,8.084,20.74,30.0166,0,21.57-18.0341,33.5-30.5,33.5H560.19Z"/><polygon class="cls-1" points="463.5 111.5 473.5 131.5 451.5 181.5 437.22 181.5 437.5 169.5 463.5 111.5"/><polygon class="cls-1" points="472.5 85.5 472.5 97.26 506.67 181.5 526.24 181.5 491.5 85.5 472.5 85.5"/><polygon class="cls-1" points="580.83 142.5 607.63 181.5 627.59 181.5 598.06 141.52 580.83 142.5"/><polygon class="cls-1" points="1028 182 1028 144.48 988.83 85.52 975.39 85.52 975.39 95.56 1010.5 144.5 1010.5 182 1028 182"/><polygon class="cls-1" points="1022 124 1046.48 86 1060 86 1060 96 1031 137 1022 124"/></svg>